<svg id="Layer_x0020_1" xmlns="http://www.w3.org/2000/svg" width="239.816" height="126.373" viewBox="0 0 239.816 126.373">
  <path id="Path_61" data-name="Path 61" d="M210.435,656.121a9.869,9.869,0,0,1-2,6.438c-1.576,1.95-3.98,2.912-7.186,2.912H183.6V642.056h6.839v16.79h10.806c1.1,0,1.777-.147,2-.427a4.425,4.425,0,0,0,.347-2.3V642.35a4.373,4.373,0,0,0-.347-2.257c-.227-.307-.908-.454-2-.454H183.6V633h17.645c3.206,0,5.61.988,7.186,2.965a9.769,9.769,0,0,1,2,6.438Zm9.31-16.483h-6.826V633h6.826Zm0,25.833h-6.826V641.455h6.826Zm27.569.053a9.643,9.643,0,0,1-1.977,6.371c-1.576,1.95-3.994,2.925-7.226,2.925H230.9c-5.517,0-8.562-2.818-9.176-8.442h6.839q.1,1.3.6,1.6a4.527,4.527,0,0,0,1.75.2h7.2c1.109,0,1.777-.134,2.017-.427a4.363,4.363,0,0,0,.347-2.231V650.3c0-1.1-.187-1.776-.548-2.017a7.386,7.386,0,0,0-2.311-.2h-6.745c-1.109,0-1.777.147-2,.427a4.351,4.351,0,0,0-.361,2.284v5.33a4.44,4.44,0,0,0,.361,2.311c.227.307.908.454,2.017.454h7.226v6.638h-7.186q-4.829,0-7.186-2.965a9.75,9.75,0,0,1-2.017-6.438v-5.33a9.931,9.931,0,0,1,2-6.425c1.576-1.95,3.954-2.912,7.146-2.912h5.7a5.659,5.659,0,0,1,3.9,1.349v-1.349h6.839Zm9.363-25.886h-6.839V633h6.839Zm0,25.833h-6.839V641.455h6.839Zm22.828,0h-8.936q-4.829,0-7.2-2.9a9.855,9.855,0,0,1-2-6.425V648.08h-3.82v-6.625h3.82V633H268.2v8.455h8.949v6.625H268.2v8.055a4.363,4.363,0,0,0,.347,2.284c.24.28.908.427,2.017.427h8.936Zm34.395,0h-6.826V633H313.9Zm-9.243-11.354-3.673,11.354h-7.64l-6.078-18.941v18.941h-6.839V633h9.524l7.2,21.465L304.35,633h.307Zm38.522,11.354H336.34v-9.751H325.628V649.1H336.34v-7c0-1.028-.227-1.683-.655-1.95a3.354,3.354,0,0,0-1.71-.307h-8.388c-1.082,0-1.736.174-1.99.508a3.007,3.007,0,0,0-.374,1.75v23.375h-6.839V642.1a8.54,8.54,0,0,1,9.2-9.1h7.881a9.821,9.821,0,0,1,7.013,2.524,8.578,8.578,0,0,1,2.7,6.572v23.375ZM372.859,633l-9.965,16.136,9.951,16.336h-7.894l-10.1-16.483L364.951,633Zm-20.37,32.471H345.65V633h6.839Z" transform="translate(-159.076 -548.448)" fill="#373435"/>
  <path id="Path_62" data-name="Path 62" d="M327.182,12.2H288.9V88.764h38.282a38.32,38.32,0,0,0,35.61-24.243c.28-.721.548-1.429.788-2.164a38.367,38.367,0,0,0,1.87-11.875h0A38.276,38.276,0,0,0,327.182,12.2Zm0,52.708H312.743V36.043h14.439a14.433,14.433,0,0,1,8.188,26.314A14.306,14.306,0,0,1,327.182,64.908Z" transform="translate(-250.311 -10.57)" fill="#ffcc29"/>
  <path id="Path_63" data-name="Path 63" d="M745.87,61.2l-8.656,26.795H719.2L704.85,43.3V88.084H662a39.953,39.953,0,0,0,25.579-23.6c.294-.735.561-1.5.8-2.244a39.9,39.9,0,0,0,1.964-12.4c0-.347,0-.681-.013-1.029V48.8c0-.334-.013-.681-.04-1.015v-.013c-.013-.321-.027-.641-.053-.962l-.013-.094c-.027-.307-.053-.6-.08-.895l-.013-.134c-.027-.281-.053-.548-.094-.815l-.027-.254c-.04-.254-.067-.494-.107-.748l-.04-.267c-.027-.2-.067-.4-.093-.6l-.094-.508-.094-.468-.107-.521-.094-.414c-.04-.214-.094-.441-.147-.654l-.013-.027-.04-.174-.013-.053c-.053-.214-.107-.427-.16-.628l-.04-.174-.053-.174c-.053-.214-.12-.441-.187-.655V11.4h22.44l17,50.611L745.135,11.4h.735V61.2Z" transform="translate(-573.575 -9.877)" fill="#ed3237"/>
  <path id="Path_64" data-name="Path 64" d="M1348.622,87.991H1332.5V11.4h16.122Z" transform="translate(-1154.515 -9.877)" fill="#ffcc29"/>
  <path id="Path_65" data-name="Path 65" d="M1386.641,556.421a2.892,2.892,0,1,0,0-3.059H1360.3v3.059Z" transform="translate(-1178.601 -478.268)" fill="#ffcc29"/>
  <path id="Path_66" data-name="Path 66" d="M1416.361,71.015l2.177,2.177a2.715,2.715,0,0,0,1.95.8h10.766a2.892,2.892,0,1,1,.227,3.072h-12.262a2.727,2.727,0,0,1-1.95-.815l-2.177-2.177a2.818,2.818,0,0,0-1.95-.8H1401V70.2h13.411A2.773,2.773,0,0,1,1416.361,71.015Z" transform="translate(-1213.865 -60.823)" fill="#ffcc29"/>
  <path id="Path_67" data-name="Path 67" d="M1413.781,167.559l1.135-1.135a2.63,2.63,0,0,1,1.857-.775h7.574a2.9,2.9,0,1,1,0,3.072h-6.291a2.637,2.637,0,0,0-1.87.775l-1.135,1.135a2.638,2.638,0,0,1-1.87.775H1391.1v-3.072h20.811A2.637,2.637,0,0,0,1413.781,167.559Z" transform="translate(-1205.287 -142.354)" fill="#ffcc29"/>
  <path id="Path_68" data-name="Path 68" d="M1453.1,421.684a2.892,2.892,0,1,0-2.444-4.421H1436.7v3.059h13.958A2.885,2.885,0,0,0,1453.1,421.684Z" transform="translate(-1244.796 -360.347)" fill="#ffcc29"/>
  <path id="Path_69" data-name="Path 69" d="M1419.159,1.3a2.892,2.892,0,1,1-2.444,4.421H1393.5V2.662h23.215a2.854,2.854,0,0,1,2.444-1.362Z" transform="translate(-1207.366 -1.126)" fill="#ffcc29"/>
  <path id="Path_70" data-name="Path 70" d="M1444.848,126.4a2.892,2.892,0,1,1-2.378,4.528h-5.77v-3.059h5.637A2.865,2.865,0,0,1,1444.848,126.4Z" transform="translate(-1244.796 -109.516)" fill="#ffcc29"/>
  <path id="Path_71" data-name="Path 71" d="M1420.668,239.8a2.892,2.892,0,1,1-2.444,4.435H1401.1v-3.072h17.124A2.884,2.884,0,0,1,1420.668,239.8Z" transform="translate(-1213.951 -207.769)" fill="#ffcc29"/>
  <path id="Path_72" data-name="Path 72" d="M1459.153,295.1a2.892,2.892,0,1,1-2.444,4.421H1436.7v-3.059h20.009A2.884,2.884,0,0,1,1459.153,295.1Z" transform="translate(-1244.796 -255.683)" fill="#ffcc29"/>
  <g id="_2480265950960" transform="translate(38.589 1.63)">
    <g id="Group_47" data-name="Group 47">
      <path id="Path_73" data-name="Path 73" d="M362.792,64.52c-.134.347-.281.708-.427,1.055a38.3,38.3,0,0,1-35.183,23.188H288.9V12.2h23.843V64.507s30.495-.013,50.05.013Z" transform="translate(-288.9 -12.2)" fill="#ed3237"/>
    </g>
    <path id="Path_74" data-name="Path 74" d="M506.706,64.52c-.134.347-.534,1.282-.681,1.63H455V12.2h1.656V64.507s30.495-.013,50.05.013Z" transform="translate(-432.814 -12.2)" fill="#b22d30"/>
  </g>
  <g id="_2480265952880" transform="translate(38.589 27.997)">
    <path id="Path_75" data-name="Path 75" d="M296.14,211.3v48.5h-3.072V213.5a.816.816,0,0,0-.828-.828H288.9V209.6h5.543A1.7,1.7,0,0,1,296.14,211.3Z" transform="translate(-288.9 -209.6)" fill="#b22d30"/>
  </g>
  <path id="Path_76" data-name="Path 76" d="M57.365,199.4H44.822a2.153,2.153,0,0,0-1.523.628L41.724,201.6a2.153,2.153,0,0,1-1.523.628H19a2.9,2.9,0,1,0,.067,3.059h22.4a2.153,2.153,0,0,0,1.523-.628l1.563-1.563a2.143,2.143,0,0,1,1.523-.628h9.083a.816.816,0,0,1,.828.828v47.659h3.072V201.1A1.7,1.7,0,0,0,57.365,199.4Z" transform="translate(-11.87 -172.766)" fill="#fcd3c2"/>
  <path id="Path_77" data-name="Path 77" d="M187.543,3.362a2.885,2.885,0,1,0,0,3.072H213.9V3.362H187.543Z" transform="translate(-157.863 -1.733)" fill="#ed3237"/>
  <path id="Path_78" data-name="Path 78" d="M116.943,474.126l-2.177-2.177a2.794,2.794,0,0,0-1.95-.8H102.05a2.863,2.863,0,0,1-2.551,1.536,2.892,2.892,0,1,1,2.324-4.608h12.262a2.727,2.727,0,0,1,1.95.815l2.177,2.177a2.76,2.76,0,0,0,1.95.8h2.124v3.072h-3.393A2.773,2.773,0,0,1,116.943,474.126Z" transform="translate(-83.697 -404.535)" fill="#ed3237"/>
  <path id="Path_79" data-name="Path 79" d="M15.908,383.734l-1.122,1.135a2.685,2.685,0,0,1-1.87.775H5.343a2.885,2.885,0,1,1,0-3.072h6.3A2.575,2.575,0,0,0,13.5,381.8l1.135-1.122a2.638,2.638,0,0,1,1.87-.775h22.08v3.059H17.779a2.661,2.661,0,0,0-1.87.775Z" transform="translate(0 -329.156)" fill="#ed3237"/>
  <path id="Path_80" data-name="Path 80" d="M219.585,138.1a2.892,2.892,0,1,0,2.444,4.421h13.958v-3.059H222.03A2.885,2.885,0,0,0,219.585,138.1Z" transform="translate(-187.755 -119.654)" fill="#ed3237"/>
  <path id="Path_81" data-name="Path 81" d="M176.2,557.97a2.885,2.885,0,1,1,2.444-4.421h10.1v3.072h-10.1A2.873,2.873,0,0,1,176.2,557.97Z" transform="translate(-150.152 -478.441)" fill="#ed3237"/>
  <path id="Path_82" data-name="Path 82" d="M230.2,433.484a2.892,2.892,0,1,1,2.378-4.541h2.952v3.072H232.71A2.893,2.893,0,0,1,230.2,433.484Z" transform="translate(-196.939 -370.571)" fill="#ed3237"/>
  <path id="Path_83" data-name="Path 83" d="M123.685,319.984a2.892,2.892,0,1,1,2.458-4.421h17.111v3.059H126.143A2.907,2.907,0,0,1,123.685,319.984Z" transform="translate(-104.664 -272.231)" fill="#ed3237"/>
  <path id="Path_84" data-name="Path 84" d="M199.685,264.684a2.892,2.892,0,1,1,2.458-4.421H209.1v3.072h-6.959A2.9,2.9,0,0,1,199.685,264.684Z" transform="translate(-170.513 -224.318)" fill="#ed3237"/>
  <g id="_2480265967520" transform="translate(38.589 13.664)">
    <path id="Path_85" data-name="Path 85" d="M344.96,151.682a2.89,2.89,0,0,1-5.343,1.536H303.312a2.115,2.115,0,0,1-2.11-2.11V106.361a.986.986,0,0,0-.988-.988H288.9V102.3h13.21a2.172,2.172,0,0,1,2.164,2.164v44.88a.807.807,0,0,0,.815.8h34.529a2.9,2.9,0,0,1,5.343,1.536Z" transform="translate(-288.9 -102.3)" fill="#b22d30"/>
  </g>
  <g id="_2480265968864" transform="translate(8.722 7.48)">
    <path id="Path_86" data-name="Path 86" d="M149.691,106.971a2.885,2.885,0,0,0-2.444,1.362H112.718a.81.81,0,0,1-.815-.815V62.652a2.163,2.163,0,0,0-2.164-2.164H92a1.731,1.731,0,0,1-1.216-.508l-1.736-1.736a3.034,3.034,0,0,0-2.137-.882H70.629a2.892,2.892,0,1,0,0,3.059H86.177a1.73,1.73,0,0,1,1.216.508l1.79,1.79a2.839,2.839,0,0,0,2.017.828h16.643a1,1,0,0,1,.988,1V109.3a2.115,2.115,0,0,0,2.11,2.11h36.305a2.894,2.894,0,1,0,2.444-4.435Z" transform="translate(-65.3 -56)" fill="#fcd3c2"/>
  </g>
  <g id="_2480265972848" transform="translate(58.558 67.975)">
    <path id="Path_87" data-name="Path 87" d="M468.089,519.7a2.907,2.907,0,0,0-2.458,1.362H450.123a1.727,1.727,0,0,0-1.723,1.723v5.69h3.072v-3.74a.61.61,0,0,1,.6-.614h13.558a2.891,2.891,0,1,0,2.458-4.421Z" transform="translate(-447.064 -518.257)" fill="#b22d30"/>
    <path id="Path_88" data-name="Path 88" d="M458.089,508.9a2.908,2.908,0,0,0-2.458,1.362H440.123a1.727,1.727,0,0,0-1.723,1.723v7.133h3.059v-5.183a.622.622,0,0,1,.614-.614h13.558a2.891,2.891,0,1,0,2.458-4.421Z" transform="translate(-438.4 -508.9)" fill="#fcd3c2"/>
  </g>
  <path id="Path_89" data-name="Path 89" d="M475.947,0a39.985,39.985,0,0,1,37.935,52.36c-.24.748-.508,1.509-.8,2.257A39.983,39.983,0,0,1,487.5,78.207h-9.163a38.319,38.319,0,0,0,33.22-24.19c.28-.721.548-1.429.775-2.164a38.063,38.063,0,0,0,1.883-11.888h0A38.305,38.305,0,0,0,475.947,1.63H460.6V0h15.347Z" transform="translate(-399.076)" fill="#fefefe" fill-rule="evenodd"/>
  <path id="Path_90" data-name="Path 90" d="M1395.5,11.4V60.181a2.172,2.172,0,0,0,2.164,2.164h5.543V59.272h-3.646a.986.986,0,0,1-.988-.988V11.4H1395.5Z" transform="translate(-1209.099 -9.877)" fill="#faa831"/>
  <path id="Path_91" data-name="Path 91" d="M1402.8,11.4V59.072a2.163,2.163,0,0,0,2.164,2.164h23.562a1.731,1.731,0,0,1,1.216.508l1.736,1.736a3.057,3.057,0,0,0,2.137.882H1449.9a2.892,2.892,0,1,0,0-3.059H1434.35a1.73,1.73,0,0,1-1.215-.508l-1.79-1.79a2.838,2.838,0,0,0-2.017-.828h-22.467a1,1,0,0,1-.989-1V11.4H1402.8Z" transform="translate(-1215.424 -9.877)" fill="#ffe295"/>
  <path id="Path_92" data-name="Path 92" d="M1351.9,81.766h12.062V78.707h-9.871a.832.832,0,0,1-.828-.828V11.4H1350.2V80.083a1.687,1.687,0,0,0,1.7,1.683Z" transform="translate(-1169.85 -9.877)" fill="#faa831"/>
  <path id="Path_93" data-name="Path 93" d="M1358.4,80.871h20.116a2.176,2.176,0,0,0,1.523-.628l1.563-1.576a2.153,2.153,0,0,1,1.523-.628h21.211a2.852,2.852,0,0,0,2.4,1.3,2.892,2.892,0,1,0-2.484-4.354h-22.4a2.153,2.153,0,0,0-1.523.628l-1.563,1.563a2.143,2.143,0,0,1-1.523.628h-16.656a.813.813,0,0,1-.815-.828V11.4H1356.7V79.175a1.7,1.7,0,0,0,1.7,1.7Z" transform="translate(-1175.482 -9.877)" fill="#ffe295"/>
  <path id="Path_94" data-name="Path 94" d="M745.87,200.844l-8.656,26.821H719.2L704.85,182.919v44.747H662v-.094a39.628,39.628,0,0,0,4.208-1.536H703.22V172.5l17.164,53.536h15.641l8.215-25.446,1.63-5.009v5.263Z" transform="translate(-573.575 -149.459)" fill="#b22d30"/>
</svg>
